<?xml version="1.0" encoding="iso-8859-1"?>
<!-- Generator: Adobe Illustrator 16.0.0, SVG Export Plug-In . SVG Version: 6.00 Build 0)  -->
<!DOCTYPE svg PUBLIC "-//W3C//DTD SVG 1.1//EN" "http://www.w3.org/Graphics/SVG/1.1/DTD/svg11.dtd">
<svg version="1.1" id="Capa_1" xmlns="http://www.w3.org/2000/svg" xmlns:xlink="http://www.w3.org/1999/xlink" x="0px" y="0px"
	 width="980px" height="980px" viewBox="0 0 980 980" style="enable-background:new 0 0 980 980;" xml:space="preserve">
<g>
	<g>
		<path d="M970.001,868.211h-25.659V210.402c0-5.523-4.477-10-10-10H43.662c-5.523,0-10,4.477-10,10v657.809H10
			c-5.523,0-10,4.479-10,10v26.984c0,5.521,4.477,10,10,10h960c5.523,0,10-4.479,10-10v-26.984
			C980.001,872.688,975.523,868.211,970.001,868.211z M121.265,798.182c0,5.521-4.477,10-10,10H70.816c-5.523,0-10-4.479-10-10
			v-40.449c0-5.523,4.477-10,10-10h40.449c5.523,0,10,4.477,10,10V798.182z M121.265,712.543c0,5.523-4.477,10-10,10H70.816
			c-5.523,0-10-4.477-10-10v-40.449c0-5.523,4.477-10,10-10h40.449c5.523,0,10,4.477,10,10V712.543z M121.265,626.906
			c0,5.523-4.477,10-10,10H70.816c-5.523,0-10-4.477-10-10v-40.449c0-5.523,4.477-10,10-10h40.449c5.523,0,10,4.477,10,10V626.906z
			 M121.265,541.271c0,5.521-4.477,10-10,10H70.816c-5.523,0-10-4.479-10-10V500.82c0-5.523,4.477-10,10-10h40.449
			c5.523,0,10,4.477,10,10V541.271z M121.265,455.633c0,5.522-4.477,10-10,10H70.816c-5.523,0-10-4.478-10-10v-40.449
			c0-5.523,4.477-10,10-10h40.449c5.523,0,10,4.477,10,10V455.633z M121.265,369.997c0,5.523-4.477,10-10,10H70.816
			c-5.523,0-10-4.477-10-10v-40.449c0-5.523,4.477-10,10-10h40.449c5.523,0,10,4.477,10,10V369.997z M121.265,284.36
			c0,5.523-4.477,10-10,10H70.816c-5.523,0-10-4.477-10-10v-40.45c0-5.523,4.477-10,10-10h40.449c5.523,0,10,4.477,10,10V284.36z
			 M209.925,798.182c0,5.521-4.477,10-10,10h-40.45c-5.523,0-10-4.479-10-10v-40.449c0-5.523,4.477-10,10-10h40.45
			c5.523,0,10,4.477,10,10V798.182z M209.925,712.543c0,5.523-4.477,10-10,10h-40.45c-5.523,0-10-4.477-10-10v-40.449
			c0-5.523,4.477-10,10-10h40.45c5.523,0,10,4.477,10,10V712.543z M209.925,626.906c0,5.523-4.477,10-10,10h-40.45
			c-5.523,0-10-4.477-10-10v-40.449c0-5.523,4.477-10,10-10h40.45c5.523,0,10,4.477,10,10V626.906z M209.925,541.271
			c0,5.521-4.477,10-10,10h-40.45c-5.523,0-10-4.479-10-10V500.82c0-5.523,4.477-10,10-10h40.45c5.523,0,10,4.477,10,10V541.271z
			 M209.925,455.633c0,5.522-4.477,10-10,10h-40.45c-5.523,0-10-4.478-10-10v-40.449c0-5.523,4.477-10,10-10h40.45
			c5.523,0,10,4.477,10,10V455.633z M209.925,369.997c0,5.523-4.477,10-10,10h-40.45c-5.523,0-10-4.477-10-10v-40.449
			c0-5.523,4.477-10,10-10h40.45c5.523,0,10,4.477,10,10V369.997z M209.925,284.36c0,5.523-4.477,10-10,10h-40.45
			c-5.523,0-10-4.477-10-10v-40.45c0-5.523,4.477-10,10-10h40.45c5.523,0,10,4.477,10,10V284.36z M298.584,798.182
			c0,5.521-4.477,10-10,10h-40.449c-5.523,0-10-4.479-10-10v-40.449c0-5.523,4.477-10,10-10h40.449c5.523,0,10,4.477,10,10V798.182z
			 M298.584,712.543c0,5.523-4.477,10-10,10h-40.449c-5.523,0-10-4.477-10-10v-40.449c0-5.523,4.477-10,10-10h40.449
			c5.523,0,10,4.477,10,10V712.543z M298.584,626.906c0,5.523-4.477,10-10,10h-40.449c-5.523,0-10-4.477-10-10v-40.449
			c0-5.523,4.477-10,10-10h40.449c5.523,0,10,4.477,10,10V626.906z M298.584,541.271c0,5.521-4.477,10-10,10h-40.449
			c-5.523,0-10-4.479-10-10V500.82c0-5.523,4.477-10,10-10h40.449c5.523,0,10,4.477,10,10V541.271z M298.584,455.633
			c0,5.522-4.477,10-10,10h-40.449c-5.523,0-10-4.478-10-10v-40.449c0-5.523,4.477-10,10-10h40.449c5.523,0,10,4.477,10,10V455.633z
			 M298.584,369.997c0,5.523-4.477,10-10,10h-40.449c-5.523,0-10-4.477-10-10v-40.449c0-5.523,4.477-10,10-10h40.449
			c5.523,0,10,4.477,10,10V369.997z M298.584,284.36c0,5.523-4.477,10-10,10h-40.449c-5.523,0-10-4.477-10-10v-40.45
			c0-5.523,4.477-10,10-10h40.449c5.523,0,10,4.477,10,10V284.36z M387.243,798.182c0,5.521-4.478,10-10,10h-40.449
			c-5.523,0-10-4.479-10-10v-40.449c0-5.523,4.477-10,10-10h40.449c5.522,0,10,4.477,10,10V798.182z M387.243,712.543
			c0,5.523-4.478,10-10,10h-40.449c-5.523,0-10-4.477-10-10v-40.449c0-5.523,4.477-10,10-10h40.449c5.522,0,10,4.477,10,10V712.543z
			 M387.243,626.906c0,5.523-4.478,10-10,10h-40.449c-5.523,0-10-4.477-10-10v-40.449c0-5.523,4.477-10,10-10h40.449
			c5.522,0,10,4.477,10,10V626.906z M387.243,541.271c0,5.521-4.478,10-10,10h-40.449c-5.523,0-10-4.479-10-10V500.82
			c0-5.523,4.477-10,10-10h40.449c5.522,0,10,4.477,10,10V541.271z M387.243,455.633c0,5.522-4.478,10-10,10h-40.449
			c-5.523,0-10-4.478-10-10v-40.449c0-5.523,4.477-10,10-10h40.449c5.522,0,10,4.477,10,10V455.633z M387.243,369.997
			c0,5.523-4.478,10-10,10h-40.449c-5.523,0-10-4.477-10-10v-40.449c0-5.523,4.477-10,10-10h40.449c5.522,0,10,4.477,10,10V369.997z
			 M387.243,284.36c0,5.523-4.478,10-10,10h-40.449c-5.523,0-10-4.477-10-10v-40.45c0-5.523,4.477-10,10-10h40.449
			c5.522,0,10,4.477,10,10V284.36z M530.309,849.57c0,5.523-4.477,10-10,10h-60.603c-5.523,0-10-4.477-10-10v-90.838
			c0-5.523,4.477-10,10-10h60.603c5.523,0,10,4.477,10,10V849.57z M564.562,712.543c0,5.523-4.477,10-10,10H425.453
			c-5.523,0-10-4.477-10-10v-40.449c0-5.523,4.477-10,10-10h129.108c5.523,0,10,4.477,10,10V712.543z M564.562,626.906
			c0,5.523-4.477,10-10,10H425.453c-5.523,0-10-4.477-10-10v-40.449c0-5.523,4.477-10,10-10h129.108c5.523,0,10,4.477,10,10V626.906
			z M564.562,541.271c0,5.521-4.477,10-10,10H425.453c-5.523,0-10-4.479-10-10V500.82c0-5.523,4.477-10,10-10h129.108
			c5.523,0,10,4.477,10,10V541.271z M564.562,455.633c0,5.522-4.477,10-10,10H425.453c-5.523,0-10-4.478-10-10v-40.449
			c0-5.523,4.477-10,10-10h129.108c5.523,0,10,4.477,10,10V455.633z M564.562,369.997c0,5.523-4.477,10-10,10H425.453
			c-5.523,0-10-4.477-10-10v-40.449c0-5.523,4.477-10,10-10h129.108c5.523,0,10,4.477,10,10V369.997z M564.562,284.36
			c0,5.523-4.477,10-10,10H425.453c-5.523,0-10-4.477-10-10v-40.45c0-5.523,4.477-10,10-10h129.108c5.523,0,10,4.477,10,10V284.36z
			 M653.221,798.182c0,5.521-4.477,10-10,10h-40.449c-5.522,0-10-4.479-10-10v-40.449c0-5.523,4.478-10,10-10h40.449
			c5.523,0,10,4.477,10,10V798.182z M653.221,712.543c0,5.523-4.477,10-10,10h-40.449c-5.522,0-10-4.477-10-10v-40.449
			c0-5.523,4.478-10,10-10h40.449c5.523,0,10,4.477,10,10V712.543z M653.221,626.906c0,5.523-4.477,10-10,10h-40.449
			c-5.522,0-10-4.477-10-10v-40.449c0-5.523,4.478-10,10-10h40.449c5.523,0,10,4.477,10,10V626.906z M653.221,541.271
			c0,5.521-4.477,10-10,10h-40.449c-5.522,0-10-4.479-10-10V500.82c0-5.523,4.478-10,10-10h40.449c5.523,0,10,4.477,10,10V541.271z
			 M653.221,455.633c0,5.522-4.477,10-10,10h-40.449c-5.522,0-10-4.478-10-10v-40.449c0-5.523,4.478-10,10-10h40.449
			c5.523,0,10,4.477,10,10V455.633z M653.221,369.997c0,5.523-4.477,10-10,10h-40.449c-5.522,0-10-4.477-10-10v-40.449
			c0-5.523,4.478-10,10-10h40.449c5.523,0,10,4.477,10,10V369.997z M653.221,284.36c0,5.523-4.477,10-10,10h-40.449
			c-5.522,0-10-4.477-10-10v-40.45c0-5.523,4.478-10,10-10h40.449c5.523,0,10,4.477,10,10V284.36z M741.88,798.182
			c0,5.521-4.477,10-10,10h-40.449c-5.522,0-10-4.479-10-10v-40.449c0-5.523,4.478-10,10-10h40.449c5.523,0,10,4.477,10,10V798.182z
			 M741.88,712.543c0,5.523-4.477,10-10,10h-40.449c-5.522,0-10-4.477-10-10v-40.449c0-5.523,4.478-10,10-10h40.449
			c5.523,0,10,4.477,10,10V712.543z M741.88,626.906c0,5.523-4.477,10-10,10h-40.449c-5.522,0-10-4.477-10-10v-40.449
			c0-5.523,4.478-10,10-10h40.449c5.523,0,10,4.477,10,10V626.906z M741.88,541.271c0,5.521-4.477,10-10,10h-40.449
			c-5.522,0-10-4.479-10-10V500.82c0-5.523,4.478-10,10-10h40.449c5.523,0,10,4.477,10,10V541.271z M741.88,455.633
			c0,5.522-4.477,10-10,10h-40.449c-5.522,0-10-4.478-10-10v-40.449c0-5.523,4.478-10,10-10h40.449c5.523,0,10,4.477,10,10V455.633z
			 M741.88,369.997c0,5.523-4.477,10-10,10h-40.449c-5.522,0-10-4.477-10-10v-40.449c0-5.523,4.478-10,10-10h40.449
			c5.523,0,10,4.477,10,10V369.997z M741.88,284.36c0,5.523-4.477,10-10,10h-40.449c-5.522,0-10-4.477-10-10v-40.45
			c0-5.523,4.478-10,10-10h40.449c5.523,0,10,4.477,10,10V284.36z M830.54,798.182c0,5.521-4.478,10-10,10h-40.449
			c-5.522,0-10-4.479-10-10v-40.449c0-5.523,4.478-10,10-10h40.449c5.522,0,10,4.477,10,10V798.182z M830.54,712.543
			c0,5.523-4.478,10-10,10h-40.449c-5.522,0-10-4.477-10-10v-40.449c0-5.523,4.478-10,10-10h40.449c5.522,0,10,4.477,10,10V712.543z
			 M830.54,626.906c0,5.523-4.478,10-10,10h-40.449c-5.522,0-10-4.477-10-10v-40.449c0-5.523,4.478-10,10-10h40.449
			c5.522,0,10,4.477,10,10V626.906z M830.54,541.271c0,5.521-4.478,10-10,10h-40.449c-5.522,0-10-4.479-10-10V500.82
			c0-5.523,4.478-10,10-10h40.449c5.522,0,10,4.477,10,10V541.271z M830.54,455.633c0,5.522-4.478,10-10,10h-40.449
			c-5.522,0-10-4.478-10-10v-40.449c0-5.523,4.478-10,10-10h40.449c5.522,0,10,4.477,10,10V455.633z M830.54,369.997
			c0,5.523-4.478,10-10,10h-40.449c-5.522,0-10-4.477-10-10v-40.449c0-5.523,4.478-10,10-10h40.449c5.522,0,10,4.477,10,10V369.997z
			 M830.54,284.36c0,5.523-4.478,10-10,10h-40.449c-5.522,0-10-4.477-10-10v-40.45c0-5.523,4.478-10,10-10h40.449
			c5.522,0,10,4.477,10,10V284.36z M919.199,798.182c0,5.521-4.478,10-10,10H868.75c-5.523,0-10-4.479-10-10v-40.449
			c0-5.523,4.477-10,10-10h40.449c5.522,0,10,4.477,10,10V798.182z M919.199,712.543c0,5.523-4.478,10-10,10H868.75
			c-5.523,0-10-4.477-10-10v-40.449c0-5.523,4.477-10,10-10h40.449c5.522,0,10,4.477,10,10V712.543z M919.199,626.906
			c0,5.523-4.478,10-10,10H868.75c-5.523,0-10-4.477-10-10v-40.449c0-5.523,4.477-10,10-10h40.449c5.522,0,10,4.477,10,10V626.906z
			 M919.199,541.271c0,5.521-4.478,10-10,10H868.75c-5.523,0-10-4.479-10-10V500.82c0-5.523,4.477-10,10-10h40.449
			c5.522,0,10,4.477,10,10V541.271z M919.199,455.633c0,5.522-4.478,10-10,10H868.75c-5.523,0-10-4.478-10-10v-40.449
			c0-5.523,4.477-10,10-10h40.449c5.522,0,10,4.477,10,10V455.633z M919.199,369.997c0,5.523-4.478,10-10,10H868.75
			c-5.523,0-10-4.477-10-10v-40.449c0-5.523,4.477-10,10-10h40.449c5.522,0,10,4.477,10,10V369.997z M919.199,284.36
			c0,5.523-4.478,10-10,10H868.75c-5.523,0-10-4.477-10-10v-40.45c0-5.523,4.477-10,10-10h40.449c5.522,0,10,4.477,10,10V284.36z"/>
		<path d="M19.143,179.663h939.719c4.286,0,6.585-5.04,3.775-8.277l-38.512-44.374c-1.861-2.745-4.961-4.389-8.277-4.389h-65.233
			c-5.523,0-10-4.477-10-10V74.805c0-5.523-4.478-10-10-10h-32.39c-5.522,0-10,4.477-10,10v37.818c0,5.523-4.477,10-10,10H201.79
			c-5.523,0-10-4.477-10-10V74.805c0-5.523-4.477-10-10-10H149.4c-5.523,0-10,4.477-10,10v37.818c0,5.523-4.477,10-10,10H62.156
			c-3.316,0-6.416,1.645-8.277,4.389l-38.512,44.374C12.557,174.623,14.856,179.663,19.143,179.663z"/>
	</g>
</g>
<g>
</g>
<g>
</g>
<g>
</g>
<g>
</g>
<g>
</g>
<g>
</g>
<g>
</g>
<g>
</g>
<g>
</g>
<g>
</g>
<g>
</g>
<g>
</g>
<g>
</g>
<g>
</g>
<g>
</g>
</svg>
